<?xml version="1.0" encoding="utf-8"?>
<!-- Generator: Adobe Illustrator 25.4.1, SVG Export Plug-In . SVG Version: 6.00 Build 0)  -->
<svg version="1.1" id="Layer_1" xmlns="http://www.w3.org/2000/svg" xmlns:xlink="http://www.w3.org/1999/xlink" x="0px" y="0px"
	 viewBox="0 0 500 500" style="enable-background:new 0 0 500 500;" xml:space="preserve">
<g>
	<path d="M95.01,333.93c-0.58-0.1-1.15-0.23-1.74-0.28c-14-1.15-26.89-5.51-38.45-13.54c-10-6.95-17.83-15.85-23.51-26.64
		c-5.19-9.86-8-20.37-8.59-31.46c-0.2-3.65-0.44-7.34-0.17-10.98c0.58-8,2.07-15.85,5.11-23.34c3.26-8.02,7.87-15.17,13.72-21.53
		c6.66-7.24,14.4-13.11,22.92-17.97c4.05-2.31,8.25-4.34,12.41-6.45c0.51-0.26,0.64-0.53,0.66-1.06c0.1-3.37-1.51-5.83-4.06-7.84
		c-1.43-1.12-2.83-2.29-4.13-3.55c-0.71-0.69-1.17-1.64-1.89-2.68c2.08-0.6,3.91-1.19,5.77-1.66c3.95-1,7.97-1.59,12.04-1.75
		c4.24-0.17,8.5-0.42,12.73-0.19c5.2,0.29,10.37,1.05,15.55,1.58c0.52,0.05,0.57,0.31,0.52,0.72c-0.1,0.81-0.66,1.4-1.58,1.59
		c-0.7,0.14-1.42,0.23-2.12,0.36c-0.3,0.06-0.6,0.16-0.9,0.24c0,0.08,0,0.15,0,0.23c1.02,0.29,2.02,0.64,3.06,0.85
		c5.37,1.14,10.77,2.18,16.13,3.38c2.85,0.64,5.64,1.54,8.45,2.33c0.15,0.04,0.28,0.13,0.47,0.44c-0.95,0.38-1.89,0.81-2.86,1.12
		c-1.49,0.49-3.02,0.86-4.51,1.37c-0.76,0.26-1.47,0.7-2.2,1.06c0.01,0.09,0.01,0.17,0.02,0.26c0.77,0.33,1.52,0.7,2.31,0.99
		c4.33,1.56,8.69,3.07,13.01,4.65c3.61,1.32,7.12,2.86,10.15,5.28c1.04,0.83,1.99,1.78,2.98,2.68c-0.04,0.12-0.09,0.25-0.13,0.37
		c-1,0.01-2.01,0.14-2.99,0.02c-2.36-0.27-4.7-0.66-7.06-0.99c-0.75-0.1-1.51-0.15-2.26-0.23c-0.08,0.11-0.17,0.23-0.25,0.34
		c0.28,0.16,0.59,0.29,0.82,0.5c7.65,7.03,14.77,14.53,20.5,23.24c4.82,7.33,8.43,15.2,10.46,23.75c1.8,7.59,2.25,15.28,1.64,23.04
		c-0.45,5.8-1.45,11.52-3.29,17.03c-1.32,3.97-2.87,7.88-4.64,11.67c-3.43,7.33-8.08,13.87-13.65,19.73
		c-6.79,7.14-14.65,12.8-23.66,16.86c-5.39,2.43-10.98,4.18-16.79,5.19c-2.96,0.51-5.98,0.73-8.96,1.08
		c-0.2,0.02-0.39,0.11-0.59,0.17C101.98,333.93,98.49,333.93,95.01,333.93z M104.55,317.48c0.04,0.11,0.09,0.22,0.13,0.33
		c1.71,0,3.41,0.03,5.12-0.01c6.84-0.14,13.53-1.2,19.93-3.7c12.05-4.71,20.66-13.1,26.27-24.67c3.61-7.45,5.48-15.38,6.17-23.58
		c0.6-7.06,0.16-14.05-1.42-20.98c-2-8.79-5.66-16.81-10.59-24.3c-6.28-9.55-14.22-17.58-22.99-24.83
		c-1.36-1.12-2.74-2.21-4.11-3.32c0-0.08,0.01-0.16,0.01-0.24c1.89-0.34,3.79-0.64,5.67-1.03c2.54-0.52,5.07-1.05,7.59-1.67
		c0.77-0.19,1.47-0.66,2.39-1.09c-1.89-1.16-3.67-1.92-5.57-2.21c-4.86-0.75-9.74-1.35-14.61-2.02c-1.47-0.2-2.92-0.46-4.59-0.73
		c0.34-0.4,0.52-0.68,0.76-0.87c0.92-0.7,1.85-1.39,2.81-2.04c1.34-0.91,2.74-1.76,4.07-2.69c0.46-0.33,0.8-0.84,1.19-1.26
		c-0.03-0.1-0.06-0.2-0.09-0.31c-2.03-0.35-4.05-0.84-6.1-1.04c-4.43-0.42-8.87-0.66-13.3-1.03c-1.39-0.12-2.76-0.42-4.42-0.68
		c0.44-0.56,0.69-0.94,0.99-1.25c0.23-0.24,0.54-0.39,0.79-0.6c0.6-0.48,0.72-1.17,0.46-1.79c-0.11-0.26-0.71-0.39-1.1-0.44
		c-1.86-0.23-3.73-0.47-5.6-0.6c-4.74-0.33-9.45-0.22-14.06,1.07c-1.36,0.38-2.65,0.98-3.97,1.47c1.06,1.39,2.07,2.56,2.89,3.85
		c1.78,2.79,2.81,5.92,3.87,9.03c0.35,1.02,0.7,2.04,1.05,3.06c0.09,0,0.17,0.01,0.26,0.01c0.49-0.79,0.96-1.6,1.46-2.38
		c0.55-0.85,1.1-1.72,1.73-2.51c0.19-0.24,0.72-0.42,0.99-0.33c0.26,0.09,0.49,0.56,0.53,0.89c0.29,2.44,0.56,4.88,0.79,7.33
		c0.32,3.39,0.5,6.78-0.11,10.16c-0.15,0.85-0.39,1.69-0.62,2.69c0.48-0.1,0.86-0.13,1.2-0.26c1.6-0.57,2.49-1.85,3.21-3.29
		c0.54-1.09,1.01-2.22,1.62-3.26c0.41-0.7,1.02-1.29,1.54-1.93c0.08,0.05,0.16,0.09,0.24,0.14c0.03,0.27,0.09,0.54,0.09,0.8
		c-0.01,2.38,0.01,4.75-0.05,7.13c-0.11,3.89-0.45,7.79,0.08,11.67c0.17,1.23,0.48,2.45,0.73,3.67c0.09,0,0.19,0.01,0.28,0.01
		c0.17-0.2,0.36-0.39,0.5-0.61c1.64-2.52,3.26-5.06,4.91-7.58c1.54-2.35,3.32-4.47,5.69-6.05c0.46-0.3,0.76-0.36,1.19,0.07
		c1.77,1.78,3.63,3.47,5.35,5.3c5.06,5.38,9.32,11.35,12.78,17.87c4.8,9.05,7.87,18.64,8.76,28.88c0.88,10.16-0.24,20.08-3.76,29.67
		c-2.97,8.07-7.72,14.99-13.96,20.89c-4.37,4.14-9.25,7.61-14.47,10.59C104.92,317.02,104.75,317.28,104.55,317.48z M75.25,308.86
		c-0.02-0.33-0.01-0.39-0.03-0.44c-0.08-0.17-0.17-0.34-0.27-0.51c-2.84-5.06-3.66-10.4-2.35-16.07c1.03-4.47,2.95-8.59,4.88-12.7
		c2.1-4.46,3.98-8.96,4.19-14.01c0.23-5.45-0.87-10.53-3.67-15.22c-2.24-3.75-5.13-6.98-8.04-10.19c-3.54-3.91-7.05-7.84-9.94-12.28
		c-0.65-1.01-0.8-2.05-0.63-3.16c0.11-0.73,0.38-1.44,0.55-2.17c0.16-0.72,0.34-1.45,0.37-2.19c0.01-0.31-0.3-0.68-0.57-0.91
		c-0.09-0.08-0.53,0.15-0.73,0.32c-4.6,3.89-9.13,7.84-12.96,12.52c-3.72,4.54-6.56,9.56-8.02,15.26c-2.53,9.89-2.08,19.7,1.6,29.21
		c5.6,14.43,15.78,24.52,29.99,30.55C71.41,307.65,73.3,308.18,75.25,308.86z"/>
	<path d="M266.63,244.01c0.71,0.17,1.42,0.35,2.13,0.5c5.18,1.11,9.84,3.21,13.68,6.95c3.15,3.07,5.32,6.75,6.86,10.82
		c2.03,5.36,2.96,10.95,3.38,16.65c0.35,4.78,0.42,9.55-0.04,14.32c-0.88,8.96-3.23,17.4-8.78,24.71
		c-4.37,5.75-10.06,9.68-16.8,12.15c-6.43,2.36-13.1,3.32-19.92,3.32c-16.65,0.02-33.29,0.01-49.94,0.01c-0.22,0-0.44,0-0.73,0
		c0-56.72,0-113.38,0-170.11c0.14-0.02,0.32-0.07,0.5-0.07c17.97,0,35.95-0.09,53.92,0.06c7.73,0.07,15.11,1.89,21.72,6.11
		c6.62,4.22,10.97,10.21,13.55,17.55c1.72,4.89,2.47,9.94,2.72,15.1c0.31,6.34-0.25,12.59-1.95,18.7
		c-1.61,5.81-4.15,11.16-8.3,15.64c-3.04,3.29-6.67,5.67-11.01,6.9c-0.35,0.1-0.68,0.24-1.02,0.36
		C266.61,243.8,266.62,243.91,266.63,244.01z M229.93,257.96c0,15.32,0,30.58,0,45.89c0.19,0.02,0.35,0.05,0.51,0.05
		c3.65,0,7.3,0.07,10.94-0.02c2.59-0.06,5.09-0.64,7.42-1.84c4.25-2.18,6.74-5.78,8.04-10.24c2.03-6.99,1.83-14.02,0.03-21.02
		c-0.84-3.28-2.35-6.25-4.81-8.65c-2.99-2.9-6.66-4.15-10.76-4.22c-3.54-0.06-7.08-0.02-10.61-0.02
		C230.46,257.89,230.21,257.93,229.93,257.96z M229.94,192.64c0,13.01,0,25.76,0,38.61c4.41-0.16,8.78,0.36,13.11-0.41
		c5.07-0.91,8.57-3.85,10.54-8.6c0.93-2.24,1.42-4.58,1.66-6.98c0.47-4.76,0.27-9.45-1.75-13.88c-2.07-4.54-5.54-7.56-10.5-8.18
		C238.72,192.67,234.35,192.81,229.94,192.64z"/>
	<path d="M310.96,163.29c0.23-0.01,0.42-0.03,0.61-0.03c17.84,0,35.67-0.11,53.51,0.07c9.01,0.09,17.32,2.68,24.33,8.64
		c5.04,4.29,8.47,9.71,10.87,15.81c2.42,6.16,3.68,12.59,4.23,19.17c0.47,5.66,0.47,11.32-0.04,16.97
		c-0.76,8.52-2.61,16.74-6.98,24.22c-4.38,7.49-10.68,12.68-18.82,15.68c-5.9,2.18-12.03,3.04-18.28,3.11
		c-5.28,0.06-10.56,0.01-15.95,0.01c0,22.15,0,44.27,0,66.45c-11.21,0-22.31,0-33.49,0C310.96,276.72,310.96,220.05,310.96,163.29z
		 M344.42,237.39c2.99,0,5.88,0.05,8.78-0.02c1.65-0.04,3.32-0.15,4.94-0.45c3.17-0.59,5.84-2.13,7.85-4.7
		c1.98-2.52,3-5.45,3.53-8.56c0.92-5.36,0.85-10.72-0.01-16.08c-0.5-3.16-1.45-6.18-3.32-8.84c-2.61-3.7-6.31-5.5-10.69-5.79
		c-3.63-0.24-7.29-0.1-10.94-0.13c-0.04,0-0.09,0.06-0.15,0.11C344.42,207.71,344.42,222.48,344.42,237.39z"/>
	<path d="M422.49,163.28c11.13,0,22.22,0,33.37,0c0,56.69,0,113.36,0,170.1c-11.1,0-22.2,0-33.37,0
		C422.49,276.72,422.49,220.04,422.49,163.28z"/>
	<path d="M61.51,279.12c-0.36,0.61-0.78,0.63-1.22,0.3c-0.69-0.51-1.34-1.06-2.03-1.56c-0.9-0.65-1.87-1.03-3.02-0.86
		c-0.49,0.07-0.74,0.3-0.68,0.74c0.17,1.28,0.18,2.63,0.65,3.8c1.1,2.73,2.42,5.37,3.66,8.05c0.2,0.42,0.42,0.83,0.66,1.33
		c-0.87,0.07-1.4-0.39-1.89-0.89c-1.57-1.63-2.46-3.66-3.22-5.74c-0.62-1.71-1.07-3.48-1.54-5.23c-0.26-0.97-0.5-1.17-1.41-0.72
		c-0.51,0.26-0.92,0.73-1.37,1.1c-0.01-0.07-0.03-0.27-0.03-0.46c0.05-4.3-0.62-8.53-1.12-12.78c-0.57-4.85-0.98-9.71-1.48-14.67
		c-1.53-0.55-2.93,0.08-3.72,1.87c-0.29,0.65-0.57,1.29-0.95,1.91c-0.73-1.3-0.41-2.54,0.12-3.76c0.93-2.11,2.24-2.96,4.83-3.08
		c0.58-5.84,2.53-11.29,4.94-16.61c0.11,0.02,0.23,0.03,0.34,0.05c-0.04,0.54,0.01,1.11-0.12,1.63c-0.63,2.6-1.43,5.17-1.92,7.79
		c-0.34,1.8-0.29,3.67-0.39,5.51c-0.03,0.51,0.26,0.8,0.73,1.07c0.81,0.46,1.6,1,2.27,1.64c1.67,1.59,3.28,3.26,4.91,4.9
		c-0.57,0.8-1.18,1-1.89,0.47c-0.79-0.59-1.45-1.35-2.21-1.98c-0.54-0.46-1.13-0.88-1.73-1.25c-0.63-0.39-1.04-0.18-1.28,0.56
		c-0.83,2.57-1.08,5.21-0.73,7.86c0.51,3.83,1.24,7.63,1.76,11.45c0.16,1.21,0.63,1.9,1.69,2.53c2.3,1.36,4.47,2.93,6.69,4.43
		C61.03,278.66,61.24,278.89,61.51,279.12z"/>
</g>
</svg>
